<?xml version="1.0" encoding="utf-8"?>
<!DOCTYPE svg PUBLIC "-//W3C//DTD SVG 1.0//EN" "http://www.w3.org/TR/2001/REC-SVG-20010904/DTD/svg10.dtd">
<svg version="1.0" xmlns="http://www.w3.org/2000/svg" class="iconify iconify--logos" width="640px" height="427px" viewBox="0 0 640 427" preserveAspectRatio="xMidYMid meet">
 <g fill="#e35b11">
  <path d="M223 413.5 l0 -13.5 -40.7 -0.2 -40.8 -0.3 -0.3 -12.2 -0.3 -12.3 -11.2 0 c-7.5 0 -11.7 -0.4 -12.5 -1.2 -1.7 -1.7 -1.7 -133.9 0 -135.6 0.8 -0.8 5 -1.2 12.5 -1.2 l11.3 0 0 -11.9 c0 -9.9 0.3 -12 1.6 -12.5 0.9 -0.3 13.7 -0.6 28.5 -0.6 l26.9 0 -0.2 -25.2 -0.3 -25.3 -13.5 -0.3 c-9.2 -0.2 -13.7 -0.6 -14.2 -1.5 -0.4 -0.7 -0.8 -24.6 -0.8 -53.2 0 -39.2 0.3 -52.4 1.2 -53.3 1.5 -1.5 28.4 -1.7 29.3 -0.2 0.3 0.6 0.6 12.5 0.5 26.5 l-0.1 25.5 11.6 0 11.5 0 0 -40.5 0 -40.5 3 0 c2.3 0 3 0.5 3 1.9 0 1.1 -0.4 2.3 -1 2.6 -0.6 0.4 -1 9.3 -1 23.6 l0 22.9 11 0 11 0 0 -10.9 c0 -8.6 0.3 -11.3 1.6 -12.5 1.4 -1.4 10.1 -1.6 81.5 -1.6 53.3 0 80.7 0.3 82 1 1.7 1 1.9 2.2 1.9 12.5 l0 11.5 9.5 0 9.5 0 0 -23 c0 -19.6 -0.2 -23.1 -1.5 -23.6 -0.8 -0.4 -1.5 -1.5 -1.5 -2.5 0 -2.5 5.5 -2.7 6.4 -0.3 0.4 0.9 0.6 19.1 0.6 40.3 l-0.1 38.6 12.6 0 12.6 0 -0.1 -24.5 c0 -18.6 0.3 -25 1.2 -26.3 1.2 -1.6 2.8 -1.7 13.8 -1.5 l12.5 0.3 0.3 79.7 0.2 79.7 13.8 0.3 13.7 0.3 0.3 53.9 c0.2 56.4 0.3 55.5 -3.9 55.6 -1.4 0 -1.6 -1.6 -1.1 -14 l0.5 -13.9 -13.9 -0.3 -13.9 -0.3 -0.2 -10 c-0.4 -15.6 0.7 -14.4 -13.1 -14.7 l-11.7 -0.3 -0.3 -13 c-0.2 -10.8 -0.5 -13.2 -1.9 -14.2 -1.1 -0.9 -5.7 -1.3 -14 -1.3 l-12.3 0 0 -13.1 c0 -7.3 0.5 -13.9 1.1 -15 0.9 -1.7 2 -2 6.7 -1.9 3.1 0.1 9.2 0.1 13.5 0.1 l7.7 -0.1 0 -10.9 c0 -6 -0.4 -11.1 -0.9 -11.3 -0.5 -0.2 -0.6 -7.1 -0.2 -15.8 l0.6 -15.5 12.3 -0.3 12.2 -0.3 0 -49.4 0 -49.5 -8.5 0 -8.5 0 0 25.1 c0 15.3 -0.4 25.8 -1 27 -1 1.7 -2.3 1.9 -15.5 1.9 l-14.5 0 -0.2 25.3 -0.3 25.2 -14.4 0.3 c-10.9 0.2 -14.6 -0.1 -15.3 -1 -0.4 -0.7 -0.8 -12.6 -0.8 -26.3 l0 -25 -46.2 -0.2 c-25.5 -0.1 -55.5 0.2 -66.8 0.7 -12.6 0.5 -20.6 0.5 -20.8 -0.1 -0.3 -0.8 -18.8 -1.4 -19.4 -0.6 -0.1 0.1 -0.5 11.9 -0.8 26.2 l-0.5 26 -16.5 0 -16.5 0 -0.3 -25.2 -0.2 -25.3 -11.5 0 c-10.3 0 -11.5 -0.2 -12.5 -1.9 -0.6 -1.2 -1 -11.7 -1 -27 l0 -25.1 -10 0 -10 0 0 49.5 0 49.5 11.4 0 c6.3 0 12.7 0.5 14.2 1 l2.7 1.1 -0.7 26.1 -0.8 26.1 36.4 -0.6 c20 -0.4 37.3 -0.4 38.6 -0.1 2.1 0.6 2.2 1.1 2.2 10.9 0 5.7 0.3 11 0.6 11.9 0.5 1.3 2.6 1.6 12.4 1.6 6.5 0 13 0.4 14.4 1 l2.6 1 0 13.5 c0 7.4 0.1 13.6 0.3 13.7 0.1 0.1 11.9 0.5 26.2 0.8 l26 0.5 0.5 12 0.5 12 22.9 0.3 c13.1 0.1 23.2 -0.2 23.5 -0.7 0.4 -0.5 6.6 -0.6 15.1 -0.2 l14.5 0.6 0 17.4 0 17.4 -38 0.1 -38 0.1 -0.5 12 -0.5 12 -27 0.3 c-18.5 0.2 -27.9 -0.1 -29.7 -0.9 l-2.8 -1.1 0 -13.9 c0 -7.7 0.1 -14 0.3 -14 0.1 -0.1 5.8 -0.5 12.7 -0.8 l12.5 -0.6 0 -10.5 0 -10.5 -11.4 -0.3 c-9.4 -0.2 -11.7 -0.6 -12.7 -2 -0.9 -1.2 -1.3 -5.3 -1.4 -12.9 l0 -11.3 -10.9 0 c-9 0 -11 0.3 -11.5 1.6 -0.3 0.9 -0.6 23.5 -0.6 50.4 l0 48.8 29.3 0.6 c16 0.4 51 0.6 77.7 0.4 l48.5 -0.3 0.3 -12.7 0.3 -12.8 2.9 0 c1.7 0 3 0.5 3 1 0 0.6 -0.4 1 -1 1 -0.6 0 -1 8.9 -1 24.6 0 15 -0.4 25.3 -1 26.5 -1 1.8 -2.5 1.9 -39 1.9 -20.8 0 -38.5 -0.3 -39.4 -0.6 -1.3 -0.5 -1.6 -2.6 -1.6 -12.5 l0 -11.9 -25.5 0 -25.5 0 0 26 0 26 -42 0 -42 0 0 -13.5z m48.3 -19.2 c1.4 -0.4 1.7 -1.7 1.7 -9.4 l0 -8.9 -63.5 0 -63.5 0 0 8.8 c0 4.9 0.3 9.1 0.6 9.5 0.7 0.7 122.1 0.8 124.7 0z m-76.3 -79.8 l0.5 -26 10 -0.2 c15.5 -0.4 14.6 0.2 14.3 -10.1 l-0.3 -8.7 -10 -0.2 c-15.9 -0.4 -14.5 0.9 -14.5 -14.7 0 -11.3 -0.2 -13.5 -1.6 -14 -2 -0.8 -16.8 -0.8 -18.8 0 -1.3 0.5 -1.6 2.7 -1.6 13.3 0 8.5 -0.4 13.1 -1.2 13.9 -0.8 0.8 -5.4 1.2 -13.9 1.2 -10.6 0 -12.8 0.3 -13.3 1.6 -1.1 2.8 -0.6 15 0.6 16.2 0.8 0.8 5.4 1.2 13.9 1.2 10.6 0 12.8 0.3 13.3 1.6 0.3 0.9 0.6 12.5 0.6 25.8 0 13.4 0.3 24.6 0.7 25 0.4 0.4 5.2 0.5 10.7 0.4 l10.1 -0.3 0.5 -26z"/>
  <path d="M461.2 344.8 c0.3 -2.2 0.8 -2.3 12.8 -2.8 l12.5 -0.5 0.3 -8.5 c0.3 -12 0.6 -13 4.2 -13 1.7 0 3 0.5 3 1 0 0.6 -0.4 1 -1 1 -0.6 0 -1 4.5 -1 11.5 0 10.3 -0.2 11.5 -1.9 12.5 -1.1 0.5 -8.1 1 -15.6 1 -13.6 0 -13.6 0 -13.3 -2.2z"/>
  <path d="M303.7 215.2 c-1.6 -0.3 -1.7 -2 -1.5 -17 l0.3 -16.7 29 0 29 0 0.3 15.9 c0.2 10.4 -0.1 16.3 -0.8 17 -1 1 -51.6 1.7 -56.3 0.8z"/>
  <path d="M273.6 160.4 c-1.2 -3.2 -0.7 -30.1 0.7 -31.1 1.4 -1.1 30.7 -1.1 32.5 0.1 1.3 0.8 1.8 27.9 0.6 31 -0.5 1.4 -3 1.6 -16.9 1.6 -13.9 0 -16.4 -0.2 -16.9 -1.6z"/>
  <path d="M355.7 161.4 c-1.3 -1.4 -0.8 -31.1 0.6 -32.2 0.7 -0.6 6.5 -0.8 15.5 -0.4 l14.2 0.5 -0.2 16.1 -0.3 16.1 -14.6 0.3 c-8 0.1 -14.8 -0.1 -15.2 -0.4z"/>
  <path d="M247 25.6 c0 -0.7 0.9 -1.6 2 -1.9 1.9 -0.5 2 -1.4 2 -12.1 0 -10.9 0.1 -11.6 2 -11.6 1.9 0 2 0.7 2 13.5 l0 13.5 -4 0 c-2.7 0 -4 -0.4 -4 -1.4z"/>
  <path d="M410 13.5 c0 -12.8 0.1 -13.5 2 -13.5 1.9 0 2 0.7 2 11.6 0 10.7 0.1 11.6 2 12.1 3.7 1 2.3 3.3 -2 3.3 l-4 0 0 -13.5z"/>
 </g>
 <g fill="#fd9f43">
  <path d="M143.6 397.3 c-0.3 -0.4 -0.6 -6 -0.6 -12.5 l0 -11.8 66.5 0 66.5 0 0 -51.9 c0 -28.6 0.3 -52.6 0.6 -53.5 0.5 -1.3 2.6 -1.6 13.1 -1.6 11.9 0 17 -1 15.8 -3.1 -0.4 -0.5 0.3 -0.9 1.4 -0.9 1.5 0 2.1 0.6 2.1 2.4 0 1.7 -0.5 2.3 -1.8 2.2 -1.5 -0.1 -1.7 1.1 -2 10.4 -0.3 10.3 0.7 15 3.2 15 0.8 0 1 4 0.7 12.5 -0.2 8.7 0 12.5 0.8 12.5 2.5 0 0.9 2.9 -1.9 3.5 l-3 0.7 0 10.8 0 10.9 3.5 1.2 c3.7 1.4 4.6 3.3 1.9 4.3 -1.4 0.5 -1.6 2.3 -1.2 12.9 l0.4 12.2 -16.8 -0.3 -16.8 -0.4 0 12 c0 9.1 -0.3 12.1 -1.3 12.5 -2 0.7 -130.3 0.7 -131.1 0z"/>
  <path d="M462.8 335.3 l-0.3 -11.8 -15.2 0.1 c-14.5 0.2 -15.3 0.1 -15.3 -1.8 0 -1.2 0.6 -1.8 1.8 -1.6 1.5 0.3 1.7 -0.9 1.7 -14.2 l0 -14.5 -11.7 -0.5 c-6.4 -0.3 -11.6 -0.3 -11.5 0 0.2 0.6 -0.8 1 -2.5 1 -1.6 0 -1.2 -24.8 0.4 -26.7 0.6 -0.8 4.9 -1.3 12.1 -1.5 l11.2 -0.3 0.3 -14.7 c0.2 -12.3 0.5 -14.8 1.7 -14.8 0.8 0 1.5 0.7 1.5 1.5 0 1.3 2 1.5 12.3 1.5 8.3 0 12.9 0.4 14 1.3 1.4 1 1.7 3.4 1.9 14.2 l0.3 13 11.7 0.3 c13.8 0.3 12.7 -0.9 13.1 14.7 l0.2 10 13.8 0.3 13.7 0.3 0 13.2 c0 19.2 1.1 17.7 -13.6 17.7 -8.7 0 -12.5 0.4 -13.1 1.3 -0.4 0.6 -1 5.7 -1.3 11.2 l-0.5 10 -11.9 0.3 c-6.6 0.1 -12.6 0.7 -13.3 1.3 -1 0.9 -1.3 -1.3 -1.5 -10.8z"/>
  <path d="M170.7 343.4 c-0.4 -0.4 -0.7 -11.6 -0.7 -25 0 -13.3 -0.3 -24.9 -0.6 -25.8 -0.5 -1.3 -2.7 -1.6 -13.3 -1.6 -8.5 0 -13.1 -0.4 -13.9 -1.2 -1.3 -1.3 -1.7 -19.2 -0.6 -22.2 0.5 -1.3 2.7 -1.6 13.3 -1.6 8.5 0 13.1 -0.4 13.9 -1.2 0.8 -0.8 1.2 -5.4 1.2 -13.9 0 -10.6 0.3 -12.8 1.6 -13.3 2 -0.8 22.8 -0.8 24.8 0 1.4 0.5 1.6 2.7 1.6 14 0 15.6 -1.4 14.3 14.5 14.7 l10 0.2 0.3 11.7 c0.3 13.8 1.5 12.7 -14.3 13.1 l-10 0.2 -0.5 26 -0.5 26 -13.1 0.3 c-7.1 0.1 -13.3 -0.1 -13.7 -0.4z"/>
  <path d="M306 240.5 c0 -2.6 -4.5 -3.5 -17 -3.5 -9.8 0 -11.9 -0.3 -12.4 -1.6 -0.3 -0.9 -0.6 -6.2 -0.6 -11.9 l0 -10.3 -2.7 -0.7 c-3.6 -0.9 -21.3 -0.3 -20.7 0.7 0.6 1 -1.7 1 -3.1 0 -0.6 -0.4 -1 -5.9 -1 -12.7 l0 -12 -24.5 -0.3 -24.5 -0.2 0.4 -13.1 c0.2 -9 -0.1 -13.5 -0.8 -14.2 -0.7 -0.7 -6.4 -1.4 -14.2 -1.7 -7.1 -0.3 -12.9 -0.8 -12.9 -1.2 0 -0.5 0 -24 0 -52.3 l0 -51.5 13 0 13 0 0 25.1 c0 15.3 0.4 25.8 1 27 1 1.7 2.2 1.9 12.5 1.9 l11.5 0 0.2 25.3 0.3 25.2 13.5 0 13.5 0 0.5 -26 c0.3 -14.3 0.7 -26.1 0.8 -26.2 0.1 -0.2 5.8 -0.3 12.7 -0.3 8.1 0 12.5 0.4 12.5 1 0 0.7 0.6 0.8 1.6 0.2 0.9 -0.5 2.5 -0.7 3.5 -0.5 2.3 0.6 2.6 3.3 0.4 3.3 -1.2 0 -1.5 1.9 -1.5 11.1 0 7.4 -0.3 10.8 -1 10.4 -0.6 -0.4 -1.7 -0.1 -2.5 0.5 -1.2 1 -1.5 3.9 -1.5 12.5 0 6.3 0.3 12 0.6 12.9 0.9 2.4 26.9 2.4 27.8 0 0.3 -0.9 0.6 -6.7 0.6 -12.9 0 -10.6 -0.2 -11.5 -2.1 -12.6 -1.2 -0.6 -1.9 -0.7 -1.5 -0.1 0.4 0.6 -0.2 0.8 -1.4 0.5 -2.7 -0.7 -2.5 -2.6 0.3 -3.8 2 -0.9 2.2 -1.8 2.5 -9.7 0.2 -5.6 -0.1 -8.8 -0.8 -8.8 -2 0 -1 -2.8 1.3 -3.4 2.6 -0.8 53 -0.8 57.2 0 3.9 0.7 4.1 1 2.5 3.9 -0.9 1.8 -1.1 5.1 -0.7 12 0.4 7.9 0.3 9.6 -0.8 9.1 -2.9 -1.1 -3.6 2.1 -3.3 14.5 l0.3 12.4 12 0 12 0 0.3 -13.2 c0.2 -10.7 0 -13.3 -1.1 -13.3 -1.1 0 -1.3 -2.2 -0.9 -11 0.4 -10.7 0.4 -11 -1.7 -11 -2.4 0 -3 -2.9 -0.6 -3.1 2.1 -0.2 2.9 -0.4 4 -0.9 0.6 -0.3 7.2 -0.4 14.8 -0.2 l13.7 0.3 0 25.2 c0 13.9 0.4 25.8 0.8 26.5 0.6 0.9 3.8 1.2 12.3 1 l11.4 -0.3 0.3 -25.2 0.2 -25.3 14.5 0 c13.2 0 14.5 -0.2 15.5 -1.9 0.6 -1.2 1 -11.7 1 -27 l0 -25.1 11.5 0 11.5 0 0 52.5 0 52.4 -12.2 0.3 -12.3 0.3 -0.5 12.7 c-0.3 6.9 -0.2 12.4 0.3 12.1 0.4 -0.2 0.7 0.6 0.7 1.9 l0 2.3 -24.7 0 -24.8 0 -0.5 13 c-0.3 7.2 -0.9 13.6 -1.3 14.3 -0.6 0.8 -4.6 1.2 -14.2 1.2 l-13.4 0 -0.3 12.3 -0.3 12.2 -40.2 0.3 c-35.7 0.2 -40.3 0 -40.3 -1.3z m51.1 -29.2 c0.5 -0.5 0.8 -6.5 0.7 -13.9 l-0.3 -12.9 -26 0 -26 0 -0.3 13.7 c-0.2 12.2 -0.1 13.7 1.5 14 4.1 0.8 49.5 0 50.4 -0.9z"/>
  <path d="M434 76.4 c0 -1.7 0.6 -2.4 2 -2.4 1.3 0 2 0.7 2 1.9 0 1 -0.9 2.1 -2 2.4 -1.6 0.4 -2 0 -2 -1.9z"/>
 </g>
 <g fill="#b7f817">
  <path d="M306.4 372.7 c-0.2 -0.7 -0.3 -7.1 -0.2 -14.3 l0.3 -12.9 26 -0.5 26 -0.5 0.5 -12 0.5 -12 53 0 53 0 0.3 12.1 c0.2 9.2 -0.1 12.4 -1.1 13.2 -0.8 0.7 -6.5 1.3 -13.8 1.4 l-12.4 0.3 -0.5 13 -0.5 13 -65.3 0.3 c-53.1 0.2 -65.4 0 -65.8 -1.1z"/>
  <path d="M316.8 320.3 l-10.8 -0.4 0 -14 0 -14 12.3 0.3 12.2 0.3 0.3 12 c0.3 13 -0.2 16.6 -2.1 16.3 -0.6 -0.1 -6 -0.4 -11.9 -0.5z"/>
  <path d="M359.5 290.8 c-0.3 -0.7 -0.6 -6.2 -0.7 -12.3 l-0.3 -11 -25.7 -0.5 c-14.1 -0.3 -26 -0.8 -26.4 -1.3 -0.8 -0.7 -0.6 -25.8 0.2 -26.6 0.2 -0.2 17.6 -0.4 38.6 -0.5 l38.3 -0.1 0.3 -12.2 0.3 -12.3 2.7 -0.1 c1.5 -0.1 7.5 -0.1 13.4 0 13.2 0.1 13 0.4 12.7 -15.5 -0.1 -6.4 0.3 -12 0.8 -12.5 0.5 -0.5 11.6 -0.8 26.4 -0.7 l25.4 0.3 0 14 0 14 -13.2 0 c-7.2 0 -13.5 0.4 -14 0.9 -0.4 0.4 -1 12.3 -1.3 26.4 l-0.5 25.7 -10.9 0.3 c-6.1 0.1 -11.6 0.8 -12.3 1.4 -0.9 0.7 -1.3 4.3 -1.3 12.4 l0 11.4 -26 0 c-19.9 0 -26.2 -0.3 -26.5 -1.2z"/>
  <path d="M204.8 213.2 l-5.8 -0.3 0 -14 0 -13.9 26.3 0.2 26.2 0.3 0 13.8 0 13.8 -20.5 0.2 c-11.3 0.1 -23.1 0.1 -26.2 -0.1z"/>
  <path d="M279 131.1 c-1.2 -0.7 -1.5 -3.1 -1.3 -12.3 l0.2 -11.3 14 -0.3 14.1 -0.3 0 11.5 c0 7.9 -0.4 11.7 -1.2 12.4 -1.6 1.2 -23.8 1.5 -25.8 0.3z"/>
  <path d="M360.1 130.6 c-0.8 -0.9 -1.1 -5 -0.9 -12.2 l0.3 -10.9 12.3 -0.3 12.3 -0.3 -0.3 12.3 -0.3 12.3 -11.1 0.3 c-8.7 0.2 -11.4 -0.1 -12.3 -1.2z"/>
  <path d="M228.8 78.2 l-4.8 -0.3 0 -25.8 c0 -18.6 0.3 -26 1.2 -26.9 0.8 -0.8 5.4 -1.2 14 -1.2 l12.8 0 0 -12 0 -12 80.5 0 80.5 0 0 12 0 12 10.6 0 c5.8 0 11.4 0.5 12.5 1 1.8 1 1.9 2.4 1.9 26.5 0 20.9 -0.3 25.5 -1.4 26.2 -0.8 0.4 -6.5 0.6 -12.8 0.3 l-11.3 -0.5 0.3 -11.2 c0.3 -10 0.2 -11.2 -1.5 -12.1 -1.1 -0.6 -30.3 -1 -79.1 -0.9 -65.2 0 -77.6 0.2 -78.8 1.4 -1 1.1 -1.4 4.3 -1.4 12.4 0 6 -0.3 10.9 -0.7 10.9 -5.3 0.3 -18.9 0.4 -22.5 0.2z"/>
 </g>
</svg>